<?xml version="1.0" encoding="utf-8"?>
<!-- Generator: Adobe Illustrator 25.4.6, SVG Export Plug-In . SVG Version: 6.00 Build 0)  -->
<svg version="1.1" id="レイヤー_1" xmlns="http://www.w3.org/2000/svg" xmlns:xlink="http://www.w3.org/1999/xlink" x="0px"
	 y="0px" viewBox="0 0 1920 1080" style="enable-background:new 0 0 1920 1080;" xml:space="preserve">
<style type="text/css">
	.st0{fill:#040000;}
</style>
<g>
	<path class="st0" d="M377,422c-8-1-10-7.57-10-19.12v-20.31c7.81-5.94,15.37-12.51,20-18.57l-2.35-1.07c0,0-7.79,4.52-17.62,9.59
		c0.32-3.98,4.41-9.52,4.41-9.52s-4.44-8-4.44-17.76v-0.39V342h5.66c1.33,0.9,2.97,2.69,2.97,6.14h1.74c0-5.79,4.63-6.95,4.63-6.95
		v-0.39v-0.62v-0.39c0,0-4.63-1.16-4.63-6.95h-1.74c0,3.45-1.64,5.25-2.97,6.14H367v-18.53V319v-18h-3c-3,12-17,13-17,13v3
		c5,1,5,4.41,5,4.41v2.98c-1.22,0.8-3.75,2.29-6,2.4c-4,0.21-11-4.79-12-9.79h-4.47c0,0,0.47,10,0.47,12s-1,22-10,29l7,2
		c0,0,10.23-9.76,14.96-18H352v5c0,0-1,7-6,12c0,0,6,11,6,19.85v0.97c-10.07,4.51-19.46,7.76-23,6.18c-9-4-9-4-12-4.29V384
		c0,0,9,4,9,13c0,0,1,14,12,5c0,0,6.01-3.51,14-8.81v25.76c-0.2,2.76-1.36,7.64-7,9.05l1,5c0,0,8-1,8,9l4,1c0,0,1-14,19-19V422z
		 M343.56,339c3.38-5.93,6.76-6.83,8.44-6.97V339H343.56z"/>
	<path class="st0" d="M450,338h-9h-5.12h-36.96c5.01-5.71,8.08-10,8.08-10s12-18,1-21c-8.89-2.43-12-8-12-8l-4,3
		c11,31-20,55.12-20,55.12l2,2.88c8.5-5.19,16.32-12.61,22.22-19h0.58c0.59,7.04,1.4,37.59-25.36,60.71l1.56,1.18
		c0,0,20-12.88,29-27.88c8.39-13.99,9.88-14.19,13.67-12.47c-3.6,18.47-13.66,44.68-41.26,64.47l1.59,2c0,0,16.67-7.38,35-28
		c7.19-8.09,16.02-27.64,24.42-35.79L435,390c-5,41-35,41.47-35,41.47V435c0,0,23,3,39-13C452,409,450,338,450,338z M416.68,356.4
		c-0.63-1.18-1.73-2.7-3.68-4.4c-3.48-3.03-10.38-6.47-14.95-11h19.51C417.64,343.18,417.72,348.78,416.68,356.4z M432,353
		c-4.89-1.22-10.94-6.31-13.02-12h16.86l-0.23,13.75C434.56,354.01,433.34,353.33,432,353z"/>
</g>
<g>
	<path class="st0" d="M1588.06,676H1583c0,3.29-0.91,5.75-2.21,7.59c-6.05-1.48-16.56-3.59-27.29-3.59
		c-6.78,0-13.48,0.85-19.02,1.84c1.65-3.66,3.52-5.84,3.52-5.84l-8-4c-8,17-26,26-26,26l2,4c3-2,8-4,15-6c0,0,16-4,32.5-4
		c6.26,0,12.44,0.58,17.71,1.29c-21.49,9.37-25.06,33.34-25.2,41.21c-0.85,1.12-2.11,2.08-4.01,2.55l0.81,4.06
		c0,0,6.5-0.81,6.5,7.31l3.25,0.81c0,0,0.81-11.38,15.44-15.44v-1.62c-3.44-0.43-5.5-2.14-6.69-5.02
		C1558.71,702.05,1594,697,1594,697c0-3.94,7.74-3.47,7.74-3.47V691C1589.47,690,1588.06,676,1588.06,676z"/>
	<path class="st0" d="M1555,762.12V759h-3v3.12c-0.19,5-1.44,14.42-8,15.88v3c0,0,8,2,8,12h3c0-10,8-12,8-12v-3
		C1556.44,776.54,1555.19,767.12,1555,762.12z"/>
</g>
<g>
	<path class="st0" d="M768,414c-8-1-9-5.57-9-17.12V373c0-4,4.44-10,4.44-10s-4.44-8-4.44-17.76v-0.39v-24.38V319v-18h-3
		c-3,12-17,13-17,13v3c5,1,5,4.41,5,4.41V347c0,0-1,7-6,12c0,0,0.37,0.68,0.92,1.83c-2.64-0.94-5.48-3.6-4.92-10.83v-12h-1.71
		c0,0-5.29,11-14.29,14v3.24c0,0,8,3.76,1,15.76l2,4c0,0,7.07-7.94,19.53-10.56c1.64,3.98,3.47,9.53,3.47,14.41v34.1
		c-0.2,2.76-1.36,7.64-7,9.05l1,5c0,0,8-1,8,9l4,1c0,0,0-16,18-21V414z"/>
	<path class="st0" d="M785,348l-1-3c-13,5-18-11-18-11h-1.74c0,0-2.26,11,0.74,20C769.91,368.73,785,348,785,348z"/>
	<path class="st0" d="M773.74,325c-0.24-3,7.41-3,7.41-3l0.04-0.04l50.32-0.46c7,0,8.65-6,8.65-6h-3.65c-1,2-6.41,2-6.41,2
		l0.01,0.01L783.5,318l-0.03,0.02c-13.94,0.31-13.39,6.98-13.39,6.98H773.74z"/>
	<path class="st0" d="M851.45,365.54c-7.52-0.32-23.27-5.4-38.09-13.88c5.04-5.39,10.37-11.75,15.92-19.28
		c1.11-1.5,2.87-2.38,4.73-2.38h1v-4h-21c0,0-3.31,8.73-10.6,19.3c-5.91-4.24-11.29-9.04-15.4-14.3l-2,2c0,0,4.49,8.69,12.56,18.79
		c-7.66,9.5-18.36,19.36-32.56,25.21l1.59,4.24c0,0,15.17-0.64,37.79-21.62c3.59,3.78,7.63,7.5,12.07,10.81
		c-3.37,0.58-8.35,2.48-12.45,6.57c-5,5-13,0-13,0l-2,3c5,2,6,10,6,10v5h-17.79c-1.32-0.62-3.84-2.37-3.84-6.64h-1.74
		c0,5.79-4.63,6.95-4.63,6.95v0.39v0.62v0.39c0,0,4.63,1.16,4.63,6.95h1.74c0-2.89,1.16-4.63,2.31-5.64H796v27h-33l3,3h73.66
		c1.33,0.9,2.97,2.69,2.97,6.14h1.74c0-5.79,4.63-6.95,4.63-6.95v-0.39v-0.62v-0.39c0,0-4.63-1.16-4.63-6.95h-1.74
		c0,3.45-1.64,5.25-2.97,6.14H815v-27h16.32c1.16,1.01,2.31,2.75,2.31,5.64h1.74c0-5.79,4.63-6.95,4.63-6.95v-0.39v-0.62v-0.39
		c0,0-4.63-1.16-4.63-6.95h-1.74c0,4.27-2.52,6.02-3.84,6.64H815v-5c0-4.51,4.23-13.25,6.05-17.03c2.23,1.47,4.55,2.83,6.95,4.03
		c4.85,2.43,13,2,15-2c1.49-2.97,6.29-6.5,8.65-8.11C852.18,366.53,852.08,365.56,851.45,365.54z"/>
</g>
<g>
	<path class="st0" d="M1304,691h3c0-10,8-12,8-12v-3c-6.56-1.46-7.81-10.88-8-15.88V657h-3v3.12c-0.19,5-1.44,14.42-8,15.88v3
		C1296,679,1304,681,1304,691z"/>
	<path class="st0" d="M1324.68,727.36h-2.37c0,3.45-1.53,5.25-2.77,6.14H1288l3,4h29.63c0.9,1.05,1.69,2.67,1.69,5.14h2.37
		c0-5.79,4.32-6.95,4.32-6.95v-0.39v-0.62v-0.39C1329,734.31,1324.68,733.15,1324.68,727.36z"/>
	<path class="st0" d="M1280.79,703.38c0.89-0.9,2.51-1.38,4.69-1.38H1318v-0.14c1.85,1.15,4.3,3.61,4.31,8.53
		c-0.01,3.43-1.53,5.22-2.77,6.11h-32.05l3.5,4h29.63c0.9,1.05,1.69,2.67,1.69,5.14h2.37c0-5.79,4.32-6.95,4.32-6.95v-0.39v-0.62
		v-0.39c0,0-4.3-1.15-4.31-6.91c0.02-7.87,6.31-9.44,6.31-9.44v-2.37c-5.18-1.15-6.16-8.59-6.32-12.54v-2.46h-2.37v2.46
		c-0.14,3.53-0.95,9.84-4.82,11.96h-32.03c-3.31,0-5.85,0.86-7.53,2.57c-1.91,1.94-1.94,4.2-1.94,4.45l4-0.05
		C1280,704.97,1280.05,704.12,1280.79,703.38z"/>
	<path class="st0" d="M1331,710c0,0,8,2,8,12h3c0-10,8-12,8-12v-3c-6.56-1.46-7.81-10.88-8-15.88V688h-3v3.12
		c-0.19,5-1.44,14.42-8,15.88V710z"/>
	<path class="st0" d="M1355,701c0,6-2.21,11-2.21,11h3.21c6.26-7.65,12.67-9.47,16-9.86V705c0,0-0.76,5.32-4.27,10H1351l3,3h12.52
		c0.75,1.5,2.18,4.53,3.4,8.12c-2.19,7.49-7.41,21.67-17.91,32.88l3,1c0,0,11.77-6.72,17-14.07v9.02c-0.2,2.76-1.36,7.64-7,9.05l1,5
		c0,0,8-1,8,9l4,1c0,0,1-14,19-19v-2c-8-1-10-7.57-10-19.12V731c0-4,4.44-10,4.44-10s-0.61-1.11-1.39-3h15.77
		c1.29,1,2.54,2.79,2.54,6h1.97c0-6.57,5.25-7.21,5.25-7.21v-0.44v-0.7v-0.44c0,0-5.25-0.65-5.25-7.21h-1.97c0,4.9-2.92,6.5-4.41,7
		h-15c-1.02-3.14-1.97-7.26-1.97-11.76v-0.39v-20.38V681v-18h-3c-3,12-17,13-17,13v3c5,1,5,4.41,5,4.41v14.73
		c-4.75-3.7-6-18.14-6-18.14h-3c-1,7-13,9.18-13,9.18V693C1353,694,1355,697,1355,701z"/>
	<path class="st0" d="M1394,710c11-18,23-15.5,23-15.5V691c-11,0-13.24-16-13.24-16H1400c0,11-9,12.47-9,12.47V690c5,6-1,17-1,17
		L1394,710z"/>
	<path class="st0" d="M1394.47,730H1392c0,2-0.38,19.4,10,21c13,2,18.59-6.76,18.59-6.76L1418,742C1408,745,1394.47,730,1394.47,730
		z"/>
	<path class="st0" d="M1366,779.94c-16-1.06-16-13.94-16-13.94v-19c0-18,1.65-25,1.65-25H1346c-7,14-18,17-18,17l2,3
		c1.81,0,4.34,0.46,7,1.09v31.63c-1.5,1.01-4.49,2.77-7.68,3.18c0.44-1.9,0.68-3.87,0.68-5.9c0-14.36-11.64-26-26-26
		s-26,11.64-26,26c0,14.36,11.64,26,26,26c10.82,0,20.09-6.6,24-16c0.05,0,3,0.04,3,5c0,5,0,10,3,11s1.65,3.12,5.82-4.44
		c3.47-6.27,7.49-12.84,9.33-18.9c4.75,20.37,25.5,23.31,43.84,22.34c13.98-0.74,15-5,19-9s17-7.12,17-7.12V777
		C1399,781,1382,781,1366,779.94z M1322.97,770.05h-10.53c-0.22-0.95-0.59-1.84-1.1-2.64l7.44-7.44
		C1321.07,762.78,1322.58,766.25,1322.97,770.05z M1308.59,764.66c-0.8-0.5-1.69-0.88-2.64-1.1v-10.53
		c3.81,0.39,7.28,1.89,10.09,4.18L1308.59,764.66z M1300.29,772c0-2.05,1.66-3.71,3.71-3.71s3.71,1.66,3.71,3.71
		c0,2.05-1.66,3.71-3.71,3.71S1300.29,774.05,1300.29,772z M1302.05,763.56c-0.95,0.22-1.84,0.59-2.64,1.1l-7.44-7.44
		c2.81-2.29,6.28-3.8,10.09-4.18V763.56z M1299.41,779.34c0.8,0.5,1.69,0.88,2.64,1.1v10.53c-3.81-0.39-7.28-1.89-10.09-4.18
		L1299.41,779.34z M1305.95,780.44c0.95-0.22,1.84-0.59,2.64-1.1l7.44,7.44c-2.81,2.29-6.28,3.8-10.09,4.18V780.44z M1289.22,759.97
		l7.44,7.44c-0.5,0.8-0.88,1.69-1.1,2.64h-10.53C1285.42,766.25,1286.93,762.78,1289.22,759.97z M1285.03,773.95h10.53
		c0.22,0.95,0.59,1.84,1.1,2.64l-7.44,7.44C1286.93,781.22,1285.42,777.75,1285.03,773.95z M1318.78,784.03l-7.44-7.44
		c0.5-0.8,0.88-1.69,1.1-2.64h10.53C1322.58,777.75,1321.07,781.22,1318.78,784.03z"/>
</g>
<g>
	<path class="st0" d="M1128,385c0,0-6-11-6-19.85v-40.1c0.2-2.76,1.36-7.64,7-9.05l-1-5c0,0-8,1-8-9l-4-1c0,0-1,12-19,17h-71v-17h-3
		c-3,12-17,13-17,13v3c5,1,5,4.41,5,4.41V347c0,0-1,7-6,12c0,0,6,11,6,19.85v40.1c-0.2,2.76-1.36,7.64-7,9.05l1,5c0,0,8-1,8,9l4,1
		c0,0,0.89-12.36,15.93-18H1107v18h3c3-12,17-13,17-13v-3c-5-1-5-4.41-5-4.41V397C1122,397,1123,390,1128,385z M1036,422
		c-8-1-10-7.57-10-19.12V373c0-4,4.44-10,4.44-10s-4.44-8-4.44-17.76v-0.39V321h74.26c5.29,2.72,6.74,10.34,6.74,20.12V371
		c0,4-4.44,10-4.44,10s4.44,8,4.44,17.76v0.39V422H1036z"/>
	<path class="st0" d="M1104,353.81v-0.62v-0.39c0,0-4.63-1.16-4.63-6.95h-1.74c0,3.45-1.64,5.25-2.97,6.14H1086v-6.5
		c0,0,0-8.5,4-12.5s0.91-7.5-1-8s-4-1-11,5s-15,3-15,3l-1,5c9,4,9,9.79,9,9.79V352h-38l3,3h35v39.12c0,6.12-6,9.88-11,6.88
		s-11.53-4-11.53-4v2.15c3.47,0.15,10.5,5.05,13.53,10.35c2,3.5,11.51,14.16,16.5,7.5c4.5-6,9.5-4,9.5-4l1-2c-3-4-3-17.76-3-17.76
		V355h8.66c1.33,0.9,2.97,2.69,2.97,6.14h1.74c0-5.79,4.63-6.95,4.63-6.95V353.81z"/>
	<path class="st0" d="M1053.83,389c0-9.85,7.88-11.82,7.88-11.82v-0.66v-1.05v-0.66c0,0-7.88-1.97-7.88-11.82h-2.95
		c0,9.85-7.88,11.82-7.88,11.82v0.66v1.05v0.66c0,0,7.88,1.97,7.88,11.82H1053.83z"/>
</g>
<g>
	<path class="st0" d="M1325,422c-8-1-10-7.57-10-19.12V373c0-1.35,0.51-2.92,1.17-4.41c1.23,2.86,3.73,6.11,7.83,5.41
		c1.6-0.27,3-1.08,4-2.14v26.42c-4.65,0.88-8.34,2.08-9,3.72c0,0-1.35,12.06,8.32,16.53c0,0,10.74-12.75,21.02-18.08
		c1.04,1.99,2.8,3.77,5.65,5.55c8,5,17-11,17-11l-2-1.41c0,0-4,4.41-10,1.41s-6-10-9-9c-3.99,1.33-3,8-3,8
		c0,0.78,0.04,1.52,0.12,2.24c-1.93,0.11-4.41,0.27-7.12,0.5V368h9v12h2.4c2.4-9.6,13.6-10.4,13.6-10.4v-2.4c-4-0.8-4-3.53-4-3.53
		v-39.58c2.14-2.78,5-3.5,5-3.5v-0.61v-0.97v-0.61c0,0-7.28-1.82-7.28-10.92h-2.73c0,6.88-4.15,9.59-6.18,10.51H1340v-2
		c1.03-5.51,0.69-10,0.69-10h-4.19c-5.19,19.29-18.55,20.77-18.55,20.77l1.48,2.23c1.96,0,5.37-0.29,8.56-0.61v36.76
		c-0.81-0.81-2.08-1.69-5-3.15c-4.74-2.37-6.35-6.22-6.8-7.66c-0.68-2.67-1.2-5.78-1.2-9.1v-0.39V342h3.39
		c1.08,0.93,2.07,2.52,2.07,5.24h1.78c0-5.94,4.75-6.53,4.75-6.53v-0.4v-0.63v-0.4c0,0-4.75-0.58-4.75-6.53h-1.78
		c0,4.17-2.34,5.7-3.73,6.24H1315v-18.53V319v-18h-3c-3,12-17,13-17,13v3c5,1,5,4.41,5,4.41V339h-16l3,3h13v5c0,0-1,7-6,12
		c0,0,2.63,4.82,4.41,10.65c-2.19,7.5-7.41,21.66-17.91,32.85l3,1c0,0,11.06-6.32,16.5-13.4v28.85c-0.2,2.76-1.36,7.64-7,9.05l1,5
		c0,0,8-1,8,9l4,1c0,0,1-14,19-19V422z M1349,365h-9v-18h9v17.42V365z M1349,321v23h-9v-23H1349z"/>
	<path class="st0" d="M1405,369h14.47v-2.5C1416,366,1408,361,1408,353h-4c0,1.93-0.45,3.71-1,5.17v-28.29
		c2.34-7.29,8.87-8.93,8.87-8.93v-0.81v-1.29v-0.81c0,0-9.7-2.42-9.7-14.55h-3.64c0,11.22-8.3,14.13-9.54,14.5h-23l3,3v45h-4l3,3h1
		h8h6.63c-11.54,60.04-60.63,64.24-60.63,64.24v1.88c30.63-0.05,49.26-11.56,60.59-25.03c0.22,5.41,0.41,11.49,0.41,15.92
		c0,10,8.68,9.12,8.68,9.12s14.32-0.12,18.88,0c4.56,0.12,4.44-7.12,4.44-7.12h-3c-1,3-9,2-9,2c-6,0-5.76-5.71-5.76-5.71
		s0-1.29,0-15.29c0-6.41-3.19-9.35-6.65-10.65c7.23-13.24,8.97-25.8,9.33-29.35H1405z M1377,321h8.95c-0.2,7.73-0.94,35.76-1.74,45
		H1377V321z"/>
</g>
<g>
	<path class="st0" d="M878,710.5c0,0,0-8.5,4-12.5s3-11,1.09-11.5C881.18,686,877,689,870,695s-14,3-14,3l-2,5c9,4,9,9.79,9,9.79
		V717h-38l3,3h35v39.12c0,6.12-6,9.88-11,6.88s-11.53-4-11.53-4v2.15C843.94,764.3,849,771,854,774.5s11.51,14.16,16.5,7.5
		c4.5-6,9.5-4,9.5-4l1-2c-3-4-3-17.76-3-17.76V720h11v-3h-11V710.5z"/>
	<path class="st0" d="M844.83,754c0-9.85,7.88-11.82,7.88-11.82v-0.66v-1.05v-0.66c0,0-7.88-1.97-7.88-11.82h-2.95
		c0,9.85-7.88,11.82-7.88,11.82v0.66v1.05v0.66c0,0,7.88,1.97,7.88,11.82H844.83z"/>
	<path class="st0" d="M920,750c0,0-6-11-6-19.85v-40.1c0.2-2.76,1.36-7.64,7-9.05l-1-5c0,0-8,1-8-9l-4-1c0,0-1,12-19,17h-71v-17h-3
		c-3,12-17,13-17,13v3c5,1,5,4.41,5,4.41V712c0,0-1,7-6,12c0,0,6,11,6,19.85v40.1c-0.2,2.76-1.36,7.64-7,9.05l1,5c0,0,8-1,8,9l4,1
		c0,0,0.89-12.36,15.93-18H899v18h3c3-12,17-13,17-13v-3c-5-1-5-4.41-5-4.41V762C914,762,915,755,920,750z M828,787
		c-8-1-10-7.57-10-19.12V738c0-4,4.44-10,4.44-10s-4.44-8-4.44-17.76v-0.39V686h74.26c5.29,2.72,6.74,10.34,6.74,20.12V736
		c0,4-4.44,10-4.44,10s4.44,8,4.44,17.76v0.39V787H828z"/>
</g>
<g>
	<path class="st0" d="M506,731h3c0-10,8-12,8-12v-3c-6.56-1.46-7.81-10.88-8-15.88V697h-3v3.12c-0.19,5-1.44,14.42-8,15.88v3
		C498,719,506,721,506,731z"/>
	<path class="st0" d="M526,725h3c0-10,8-12,8-12v-3c-6.56-1.46-7.81-10.88-8-15.88V691h-3v3.12c-0.19,5-1.44,14.42-8,15.88v3
		C518,713,526,715,526,725z"/>
	<path class="st0" d="M591,750c0,0-6-11-6-19.85v-40.1c0.2-2.76,1.36-7.64,7-9.05l-1-5c0,0-8,1-8-9l-4-1c0,0-1,12-19,17h-71v-17h-3
		c-3,12-17,13-17,13v3c5,1,5,4.41,5,4.41V712c0,0-1,7-6,12c0,0,6,11,6,19.85v40.1c-0.2,2.76-1.36,7.64-7,9.05l1,5c0,0,8-1,8,9l4,1
		c0,0,0.89-12.36,15.93-18H570v18h3c3-12,17-13,17-13v-3c-5-1-5-4.41-5-4.41V762C585,762,586,755,591,750z M499,787
		c-8-1-10-7.57-10-19.12V738c0-4,4.44-10,4.44-10s-4.44-8-4.44-17.76v-0.39V686h74.26c5.29,2.72,6.74,10.34,6.74,20.12V736
		c0,4-4.44,10-4.44,10s4.44,8,4.44,17.76v0.39V787H499z"/>
	<path class="st0" d="M565.56,709.85c2.56-3.15,1.44-6.85-2.91-4.85c-4.35,2-14.65,2-14.65,2c-1,0-2-3-2-3l-2.94,0.43L543,711
		c-0.69,10.73-6.18,21.9-13.05,31.93C513.92,734.9,501,734,501,734v2c10.4,3.47,18.36,8.62,24.12,13.52
		C512.92,765.2,499,776.71,499,776.71l3,1.29c12.43-5.03,22.75-12.43,31.14-20.42c2.3,2.76,3.56,4.81,3.86,5.42c1,2-3,3-3,3v5
		c14,0,18.76,10,18.76,10H556c1-12,7-12,7-12v-3c-4,0-8-5-8-5c-4.62-4.62-9.38-8.45-14.06-11.63C555.42,732.61,562,715.81,562,714
		C562,711,563,713,565.56,709.85z"/>
</g>
<path class="st0" d="M456,705.76V702c-15-2-15.29-24-15.29-24H436c1,4-4,12-4,12c-4.22,6.2-9.43,11.19-15,15.24v-17.88
	c1-14.65,9-26.35,9-26.35l-4-2c-8,16-24,18-24,18v5c6,0,6,7.35,6,7.35v23.56c-3.79,1.82-7.51,3.3-11,4.53v-7.6
	c0-13.15,3.65-25.85,3.65-25.85h-4.82c-5.18,11-16.82,12-16.82,12v5c4,1,4,6.82,4,6.82v13.86c-1.92,0.52-3.45,0.95-4.47,1.31
	c-5.53,2-7.53-3-7.53-3l-3,1.47c4,9.47,2.59,17.53,2.59,17.53H371l0.64-3.82c0.37-2.24,1.4-4.34,3.04-5.91
	c0.03-0.03,0.06-0.06,0.09-0.08c0.81-0.75,1.81-1.27,2.88-1.55c0.46-0.12,0.91-0.24,1.36-0.36v17.38c-5.14,4-12.96,8.23-21,11.73
	V738c0-4,4.44-10,4.44-10s-3.06-5.53-4.1-13h8.32c1.33,0.9,2.97,2.69,2.97,6.14h1.74c0-5.79,4.63-6.95,4.63-6.95v-0.39v-0.62v-0.39
	c0,0-4.63-1.16-4.63-6.95h-1.74c0,3.45-1.64,5.25-2.97,6.14h-8.61c-0.03-0.58-0.05-1.17-0.05-1.76v-0.39v-24.38V684v-18h-3
	c-3,12-17,13-17,13v3c5,1,5,4.41,5,4.41V712h-15l3,3h11.26c-0.79,2.49-2.34,6.08-5.26,9c0,0,6,11,6,19.85v18.05
	c-3.82,1.12-7.27,1.87-10,2.09c-12,1-17-5-17-5l-3,2c0,0,3.45,3.36,8,7c5,4,0,6,6,15c5.26,7.9,42.86-23.42,52-31.22v12.71v1.27V766
	c0,1.24,0,3.4,0,7c0,24,21,23.47,21,23.47h56V792c-3.82,0-10-4-14-9c-4.42-5.52-16-4-16-4s-14,0-22,0c-11,0-11-12-11-12v-5.53V760
	v-37.1c4.04-1.48,7.71-3.01,11-4.53V760l0,0c0.01,7.42,0.18,7.1,5.59,10c3.48,1.87,4,7,4,7H417v-21v-3.71v-1.83
	c6.34,8.58,9.53,20.54,9.53,20.54H433c3-14,16-16.82,16-16.82V750c-5,0-5-9-5-9v-28C445,707,456,705.76,456,705.76z M417,743.69
	v-32.25c4.01-2.46,6.67-4.44,8-5.44c4-3,4,0,4,0v41C428.3,751.87,421.24,747.07,417,743.69z"/>
<g>
	<path class="st0" d="M963.57,786.41c-5.43,11.41-32.57,12.35-32.57,12.35V801c6,3,38,1.38,38,1.38c13-0.62,18-15.38,20-20.38
		s7.15-5.44,7.15-5.44v-3.06H977C971,773.5,969,775,963.57,786.41z"/>
	<path class="st0" d="M1051.74,783.59c-11.42,6.46-21.53,3.63-28.67-0.65C1034.04,771.03,1044,777,1044,777l2-2c-1-2-1-7-1-7v-45.98
		c2.09-1.73,6.74-1.49,6.74-1.49V718c-12.26-1-13.68-15-13.68-15H1038v-16.94c0-3.94,7.74-3.53,7.74-3.53V680
		c-12.26-1-13.68-15-13.68-15H1027c0,9.16-6.99,12.11-10.3,13H976v-22h-3.75C968.5,671,951,672.25,951,672.25V676
		c4.13,0.83,5.52,2.96,6,4.32V705h6.78c-4.95,7.29-14.78,8-14.78,8v3c5,1,5,4.41,5,4.41v41.54c-0.2,2.76-1.36,7.64-7,9.05l1,5
		c0,0,8-1,8,9l4,1c0,0,1-14,19-19h46.81c-0.95,7.94-5.31,13.4-5.76,13.94c-4.96-3.63-7.87-7.44-7.87-7.44H1009
		c3,15.5,12,27.68,18,29.5s13-1,17-7c2.48-3.72,10-11,10-11L1051.74,783.59z M1019,698h-43v-17h42.8l0.2,0.05V698z M976,705v-4h43v4
		h0.03c-1.34,3.28-3.03,5.27-3.03,5.27l2.31,1.54c5.96-6.5,11.53-6.13,14.31-5.35c-1.49,6.47-7.07,8.78-9.92,9.54H969v-11H976z
		 M969,719h55.8l1.2,0.32V732h-57v-12.53V719z M969,735h57v13h-56.98c-0.02-0.69-0.02-1.39-0.02-2.12V735z M975.44,764
		c-4.08-1.93-5.77-6.32-6.26-13H1026v13H975.44z"/>
</g>
<g>
	<path class="st0" d="M488,326h3c0-10,8-12,8-12v-3c-6.56-1.46-7.81-10.88-8-15.88V292h-3v3.12c-0.19,5-1.44,14.42-8,15.88v3
		C480,314,488,316,488,326z"/>
	<path class="st0" d="M508.68,324.04v-2.46h-2.37v2.46c-0.14,3.53-0.95,9.84-4.82,11.96h-32.03c-3.31,0-5.85,0.86-7.53,2.57
		c-1.91,1.94-1.94,4.2-1.94,4.45l4-0.05c0-0.01,0.05-0.85,0.79-1.6c0.89-0.9,2.51-1.38,4.69-1.38H502v-0.14
		c1.85,1.15,4.3,3.61,4.31,8.53c-0.01,3.43-1.53,5.22-2.77,6.11H471.5l3.5,4h29.63c0.9,1.05,1.69,2.67,1.69,5.14v1.72
		c0,3.45-1.53,5.25-2.77,6.14H472l3,4h29.63c0.9,1.05,1.69,2.67,1.69,5.14h2.37c0-5.79,4.32-6.95,4.32-6.95v-0.39v-0.62v-0.39
		c0,0-4.32-1.16-4.32-6.95v-1.72c0-5.79,4.32-6.95,4.32-6.95v-0.39v-0.62v-0.39c0,0-4.3-1.15-4.31-6.91
		c0.02-7.87,6.31-9.44,6.31-9.44v-2.37C509.82,335.43,508.84,327.99,508.68,324.04z"/>
	<path class="st0" d="M589.37,366.86h-1.74c0,3.45-1.64,5.25-2.97,6.14h-5.24c-3.55-0.99-4.91-4.94-5.43-7.83v-8.88
		c2.49-8.06,11.02-9.84,11.02-9.84v-0.81v-1.29v-0.81c0,0-11.7-2.42-11.7-14.55h-3.64c0,9.15-5.52,12.77-8.23,14H551v-22h26.66
		c1.33,0.9,2.97,2.69,2.97,6.14h1.74c0-5.79,4.63-6.95,4.63-6.95v-0.39v-0.62v-0.39c0,0-4.63-1.16-4.63-6.95h-1.74
		c0,3.45-1.64,5.25-2.97,6.14H519l3,3h10v22h-3.66c-1.33-0.9-2.97-2.69-2.97-6.14h-1.74c0,5.79-4.63,6.95-4.63,6.95v0.39v0.62v0.39
		c0,0,4.63,1.16,4.63,6.95h1.74c0-3.45,1.64-5.25,2.97-6.14H532v15.76c0,0,0,11.24-7.5,11.24H516l3,3h65.66
		c1.33,0.9,2.97,2.69,2.97,6.14h1.74c0-5.79,4.63-6.95,4.63-6.95v-0.39v-0.62v-0.39C594,373.81,589.37,372.65,589.37,366.86z
		 M563,359c0,5.52-4.48,10-10,10s-10-4.48-10-10c0-5.52,4.48-10,10-10S563,353.48,563,359z"/>
	<path class="st0" d="M508.68,383h-2.37c0,7.89-6.32,8-6.32,8h-1h-14.91c1.35-6.06,3.47-11.35,3.47-11.35H483
		c-3,9.65-20,20.35-20,20.35l2,3c1.82-1.3,3.91-2.16,6-2.72v19.01c-4.67,2.64-8,5.87-8,9.71c0,7,7,12,7,12h3c2.15-3.55,1-9,16-21
		c0,0,5.66-3.14,10-4.44v6.38c0,2.94-0.45,6.44,4,10.06c6,4.88,5,8.71,5,8.71h3V426v-5.65V402c0-7.89,4-9.05,4-9.05v-0.53v-0.84
		v-0.53C515,391.05,508.68,390.89,508.68,383z M483,414.31V399.5c0-1.75,0.2-3.63,0.5-5.5H499v16.35
		C495.88,410.93,489.53,412.23,483,414.31z"/>
	<path class="st0" d="M553,380c-16.57,0-30,13.43-30,30s13.43,30,30,30s30-13.43,30-30S569.57,380,553,380z M562.74,407.75
		c-0.25-1.1-0.69-2.12-1.27-3.05l8.59-8.59c2.64,3.24,4.38,7.25,4.83,11.64H562.74z M558.3,401.53c-0.93-0.58-1.95-1.01-3.05-1.27
		v-12.15c4.39,0.45,8.4,2.18,11.64,4.83L558.3,401.53z M548.71,410c0-2.37,1.92-4.29,4.29-4.29s4.29,1.92,4.29,4.29
		s-1.92,4.29-4.29,4.29S548.71,412.37,548.71,410z M550.75,400.26c-1.1,0.25-2.12,0.69-3.05,1.27l-8.59-8.59
		c3.24-2.64,7.25-4.38,11.64-4.83V400.26z M547.7,418.47c0.93,0.58,1.95,1.01,3.05,1.27v12.15c-4.39-0.45-8.4-2.18-11.64-4.83
		L547.7,418.47z M555.25,419.74c1.1-0.25,2.12-0.69,3.05-1.27l8.59,8.59c-3.24,2.64-7.25,4.38-11.64,4.83V419.74z M535.94,396.11
		l8.59,8.59c-0.58,0.93-1.01,1.95-1.27,3.05h-12.15C531.56,403.36,533.3,399.36,535.94,396.11z M531.11,412.25h12.15
		c0.25,1.1,0.69,2.12,1.27,3.05l-8.59,8.59C533.3,420.64,531.56,416.64,531.11,412.25z M570.06,423.89l-8.59-8.59
		c0.58-0.93,1.01-1.95,1.27-3.05h12.15C574.44,416.64,572.7,420.64,570.06,423.89z"/>
</g>
<g>
	<path class="st0" d="M990.37,421.86h-1.74c0,3.45-1.64,5.25-2.97,6.14H979c-6.2,0-6.93-7.5-7-10.11v-0.3V410
		c0-12.12,11.02-14.55,11.02-14.55v-0.81v-1.29v-0.81c0,0-11.7,0.58-11.7-11.55h-3.64c0.24,7.5-5.33,8.81-8.12,9h-42.49
		c0.1-1.62,0.34-3.83,0.93-5c1-2,19.59-12.26,24-13c12-2,36,8,36,8l2-4c-9.2-2.84-14.73-5.15-21.09-8.34
		c-4.85-2.43-7.91-7.4-7.91-12.83V350c0-7,6-13,6-13l-2-2c-3,3-11,7-16.35,7.07C933.29,342.14,934,345,934,345s0,2,0,9s-11,11-16,13
		s-6-4-10-2.71c-4,1.29-2.41,5.93-2.41,5.93s0.41,1.77,4.24,8.63c2.51,4.5,2.99,8.75,3.02,11.15h-21.44C870,390,872,405,872,405h3
		c2-6,8-7,8-7v19.89c-0.07,2.61-0.8,10.11-7,10.11h-12l-3,3h124.66c1.33,0.9,2.97,2.69,2.97,6.14h1.74c0-5.79,4.63-6.95,4.63-6.95
		v-0.39v-0.62v-0.39C995,428.81,990.37,427.65,990.37,421.86z M924.42,412.5c0.52,0.89,1.48,1.5,2.58,1.5s2.06-0.61,2.58-1.5h7.29
		c-0.73,4.81-4.86,8.5-9.88,8.5s-9.15-3.69-9.88-8.5H924.42z M953,401c5.52,0,10,4.48,10,10c0,5.52-4.48,10-10,10
		c-5.01,0-9.15-3.69-9.88-8.5h7.29c0.52,0.89,1.48,1.5,2.58,1.5c1.66,0,3-1.34,3-3s-1.34-3-3-3c-1.11,0-2.06,0.61-2.58,1.5h-7.29
		C943.85,404.69,947.99,401,953,401z M927,401c5.01,0,9.15,3.69,9.88,8.5h-7.29c-0.52-0.89-1.48-1.5-2.58-1.5s-2.06,0.61-2.58,1.5
		h-7.29C917.85,404.69,921.99,401,927,401z M901,401c5.01,0,9.15,3.69,9.88,8.5h-7.29c-0.52-0.89-1.48-1.5-2.58-1.5
		c-1.66,0-3,1.34-3,3s1.34,3,3,3c1.11,0,2.06-0.61,2.58-1.5h7.29c-0.73,4.81-4.86,8.5-9.88,8.5c-5.52,0-10-4.48-10-10
		C891,405.48,895.48,401,901,401z"/>
	<path class="st0" d="M892,328c2-3,8-6,8-6l-2-4c0,0-5,3-11,3c-3,0-7-5-7-12c0-3.5-1-5.75-2-6.12c-0.97-0.36-2.05,0.17-2.5,1.1
		c-1.78,3.64-7.33,16.79-0.5,27.03C883,343,890,331,892,328z"/>
	<path class="st0" d="M872,371c0,0-3.59,9.94-0.8,12.97c0,0,3.8,5.03,17.8-14.97c0,0,15-17,15-37h-3c0,0-10,27-23,27c-5.1,0-8-4-8-4
		l-2,3C868,358,874,364,872,371z"/>
	<path class="st0" d="M930.82,330h36.03c1.36,22.16,16.26,26.02,21.16,27c5,1,8-1,2-6s-5-17-4.62-21c0.18-1.86-0.55-2.63-1.38-2.93
		V327h-0.19c-0.91-0.25-1.86,0-1.86,0h-49.13c2.68-4.48,4.09-8.84,4.66-11.28c1.47-6.28-2.47-4.72-10.94-5.72S913,309,916,313
		s3,9,3,9c0,15-11,17-11,17l1,3C919.49,341.48,926.4,336,930.82,330z"/>
</g>
<path class="st0" d="M1544.83,306.5h-2.95c0,7.8-4.93,10.65-6.98,11.5H1427l3,3h21.5c-8.22,16.27-25.5,23-25.5,23l2,4
	c4-1.6,7.7-2.7,11-3.45v15.68c-4.59,1.78-8,4.53-8,8.77c0,7,8,9,8,9h3c2.15-3.55,4-10,15-15h27.22c-11.61,14.73-20.22,9-20.22,9
	l-2,1.53c0.96,5.08,1.03,9.56,0.52,13.47H1430l3,3h29c-3.12,14.26-14,20-14,20v8c5.9-3.39,10.95-7.01,15.28-10.7c0,0,0,0,0,0
	c10.28-4.7,10.72-1.3,14.72,1.7s0.71,9,0.71,9c-4.29,10-19.71,11.94-19.71,11.94h-25l-3,3.06h47c12.21,0.51,18.72-3.91,23.31-10.26
	c7.08,2.87,8.99,10.26,8.99,10.26h4.71c5-11,34-13.06,34-13.06V417c-19.31,0-32.79-4.65-40.22-8.17c1.18-2.45,2.41-4.91,3.81-7.28
	c4.16-6.99,9.55-10.15,14-11.56h11.98c1.74,1.78,3.31,4.6,3.31,9h2.95c0-9.85,7.88-11.82,7.88-11.82v-0.66v-1.05v-0.66
	c0,0-7.88-1.97-7.88-11.82h-2.95c0,7.8-4.92,10.65-6.98,11.5l-52.8-0.32c5.36-10.14,6.57-18.41,6.83-21.18h28.32
	c2.25,0.19,6.75,1.5,6.75,9l4,1c0,0,4-11,21-11v-2c-6.93-0.87-9.36-5.92-9.88-14.77c0.95-3.1,7.62-2.7,7.62-2.7V340
	c-12.26-1-13.68-15-13.68-15H1528c0,12-12,13-12,13h-12.29c2.04-5.19,7.01-5.82,7.01-5.82v-0.66v-1.05v-0.66
	c0,0-6.76-0.85-7.75-8.82h31.93c2.06,0.85,6.98,3.7,6.98,11.5h2.95c0-9.85,7.88-11.82,7.88-11.82v-0.66v-1.05v-0.66
	C1552.71,318.32,1544.83,316.35,1544.83,306.5z M1489,408c-4.42,0-8-3.58-8-8s3.58-8,8-8s8,3.58,8,8S1493.42,408,1489,408z
	 M1472.75,321c-0.99,7.97-7.75,8.82-7.75,8.82v0.66v1.05v0.66c0,0,4.96,0.63,7.01,5.82h-17.53c1.41-7.81,5.52-14,5.52-14l-6-3
	H1472.75z M1465.1,360c-4.97,0-9-4.03-9-9c0-4.97,4.03-9,9-9s9,4.03,9,9C1474.1,355.97,1470.07,360,1465.1,360z M1488.5,360
	c-4.97,0-9-4.03-9-9c0-4.97,4.03-9,9-9s9,4.03,9,9C1497.5,355.97,1493.47,360,1488.5,360z M1511.9,342c4.97,0,9,4.03,9,9
	c0,4.97-4.03,9-9,9s-9-4.03-9-9C1502.9,346.03,1506.93,342,1511.9,342z M1499.01,338h-22.3c2.04-5.19,7.01-5.82,7.01-5.82v-0.66
	v-1.05v-0.66c0,0-6.76-0.85-7.75-8.82h23.79c-0.99,7.97-7.75,8.82-7.75,8.82v0.66v1.05v0.66C1492,332.18,1496.96,332.81,1499.01,338
	z"/>
</svg>
